<svg width="14" height="14" viewBox="0 0 14 14" fill="none" xmlns="http://www.w3.org/2000/svg">
<path d="M11.6673 0.333984H2.33398C1.80355 0.333984 1.29484 0.544698 0.919771 0.919771C0.544698 1.29484 0.333984 1.80355 0.333984 2.33398V3.11398C0.333889 3.38928 0.390629 3.66163 0.500651 3.91398V3.95398C0.594838 4.16797 0.728246 4.36243 0.893984 4.52732L5.00065 8.60732V13.0007C5.00042 13.1139 5.02907 13.2254 5.0839 13.3246C5.13872 13.4237 5.21791 13.5073 5.31398 13.5673C5.42008 13.6331 5.5425 13.6677 5.66732 13.6673C5.77168 13.6667 5.87444 13.6416 5.96732 13.594L8.63398 12.2607C8.74393 12.2053 8.83638 12.1205 8.9011 12.0158C8.96582 11.911 9.00028 11.7904 9.00065 11.6673V8.60732L13.0807 4.52732C13.2464 4.36243 13.3798 4.16797 13.474 3.95398V3.91398C13.5932 3.66361 13.659 3.39117 13.6673 3.11398V2.33398C13.6673 1.80355 13.4566 1.29484 13.0815 0.919771C12.7065 0.544698 12.1978 0.333984 11.6673 0.333984ZM7.86065 7.86065C7.79886 7.92295 7.74998 7.99682 7.7168 8.07805C7.68363 8.15927 7.66681 8.24625 7.66732 8.33399V11.254L6.33398 11.9207V8.33399C6.33449 8.24625 6.31767 8.15927 6.2845 8.07805C6.25132 7.99682 6.20244 7.92295 6.14065 7.86065L2.60732 4.33398H11.394L7.86065 7.86065ZM12.334 3.00065H1.66732V2.33398C1.66732 2.15717 1.73756 1.9876 1.86258 1.86258C1.9876 1.73756 2.15717 1.66732 2.33398 1.66732H11.6673C11.8441 1.66732 12.0137 1.73756 12.1387 1.86258C12.2637 1.9876 12.334 2.15717 12.334 2.33398V3.00065Z" fill="#4A4A4A"/>
</svg>
